<svg xmlns="http://www.w3.org/2000/svg" viewBox="0 0 159.16 140.48"><defs><style>.cls-1{fill:#8a9cc0;}.cls-1,.cls-10,.cls-11,.cls-12,.cls-13,.cls-14,.cls-15,.cls-2,.cls-3,.cls-4,.cls-5,.cls-6,.cls-7,.cls-8,.cls-9{fill-rule:evenodd;}.cls-2{fill:#fff;}.cls-3{fill:#d7deef;}.cls-4{fill:none;stroke:#fff;stroke-miterlimit:22.93;stroke-width:1.22px;}.cls-5{fill:#363e5e;}.cls-6{fill:#e8c43a;}.cls-7{fill:#334886;}.cls-8{fill:#dfe3e7;}.cls-9{fill:#797b7b;}.cls-10{fill:#292a3f;}.cls-11{fill:#434444;}.cls-12{fill:#242121;}.cls-13{fill:#e6e5e5;}.cls-14{fill:#363f5f;}.cls-15{fill:#5c6e97;}</style></defs><title>Logo</title><g id="Camada_2" data-name="Camada 2"><g id="Camada_1-2" data-name="Camada 1"><g id="Logo"><path class="cls-1" d="M18.23,95.26a3,3,0,0,1-1.17,1.92,3,3,0,0,1-3.91.25c-2.06-1.64-4-5.72-4.43-8.16s0-3.61-.07-5.46,3-4.85,4.7-5.65,2.41,0,2.41,0a13.21,13.21,0,0,0-2.59,3.92,4.79,4.79,0,0,0,1.34,4.38,19.87,19.87,0,0,1,2.57,3.74A8.86,8.86,0,0,1,18.23,95.26Z"/><path class="cls-2" d="M17.88,95.43a2.82,2.82,0,0,1-1.06,1.87,2.75,2.75,0,0,1-3.73.16c-2-1.68-3.95-5.76-4.39-8.17s0-3.57-.2-5.41,2.6-5.55,4.15-6.29,4,.25,4,.25-3.42,2.84-3.83,4.47a5,5,0,0,0,1.37,4.36,22.58,22.58,0,0,1,2.39,3.76A9.36,9.36,0,0,1,17.88,95.43Z"/><path class="cls-3" d="M17.06,95.92a2.6,2.6,0,0,1-3.44,1c-1.27-.67-.11-.91.85-1.21,3-.94,1.06-4.18,0-5.89-1.54-2.42-3.8-5-2.37-8.1a6.1,6.1,0,0,1,3.26-2.84s-2.16,2.47-2.38,4c-.41,2.9,2.32,5.73,3.37,8.48.4,1.08,1.15,2.77.95,3.94A1.93,1.93,0,0,1,17.06,95.92Z"/><path class="cls-4" d="M87.83,132.57c1.8.19,2.79-1.4,4-1.4a4.16,4.16,0,0,1,2.39,1.19s-1.59.6-2,1.4a4.92,4.92,0,0,0-1.79-.8c-1-.2-2.59-.39-2.59-.39"/><path class="cls-5" d="M67.76,2A65.77,65.77,0,1,1,2,67.76,65.77,65.77,0,0,1,67.76,2Z"/><path class="cls-2" d="M67.76,1.74V3.49A64.26,64.26,0,1,1,22.31,22.31,64,64,0,0,1,67.76,3.49V0a67.76,67.76,0,1,0,47.91,19.85A67.53,67.53,0,0,0,67.76,0Z"/><path class="cls-6" d="M67.76,4.41A63.35,63.35,0,1,1,4.41,67.76,63.34,63.34,0,0,1,67.76,4.41Z"/><path class="cls-5" d="M67.76,18.82A48.94,48.94,0,1,1,18.82,67.76,48.94,48.94,0,0,1,67.76,18.82Z"/><path class="cls-7" d="M67.76,21.45A46.31,46.31,0,1,1,21.45,67.76,46.3,46.3,0,0,1,67.76,21.45Z"/><path class="cls-2" d="M67.76,21.45v1.74A44.56,44.56,0,1,1,36.24,36.24a44.4,44.4,0,0,1,31.52-13V19.72a48,48,0,1,0,34,14.07,47.89,47.89,0,0,0-34-14.07Z"/><path class="cls-5" d="M12.81,77.74l.32,1.73-1.59-.3a5.61,5.61,0,0,0-1.1-.13v0a6.86,6.86,0,0,0,1-.48l1.39-.8Zm2.3-1.27.1.56,1-.19-.5-2.74-1,.19.1.56L9.17,78.29l.3,1.62L16,81.26l.1.56,1-.19-.47-2.56-1,.19.12.68-1.45-.25-.47-2.53,1.28-.69Zm-.16-3a1,1,0,0,0,.62-.31.92.92,0,0,0,.21-.71,1,1,0,0,0-.34-.67,1,1,0,0,0-1.35.15,1.06,1.06,0,0,0-.16.7,1,1,0,0,0,.29.63.88.88,0,0,0,.73.21ZM11.9,66l-.05,1.75-1.49-.62a7.17,7.17,0,0,0-1-.36v0a5.86,5.86,0,0,0,1.06-.25L11.9,66Zm2.52-.77,0,.57,1,0L15.52,63l-1,0v.56l-6.23,2.2,0,1.65,6.1,2.67,0,.57,1.05,0,.07-2.6-1.05,0,0,.7L13,68.2,13,65.62l1.4-.41Zm.5-3A.88.88,0,0,0,16,61.44a.87.87,0,0,0-.15-.73.89.89,0,0,0-.6-.35.84.84,0,0,0-1.07.77,1,1,0,0,0,.11.69.89.89,0,0,0,.65.38Zm-1.37-7.9L13.11,56l-1.31-.94a6.21,6.21,0,0,0-.94-.58v0a6.58,6.58,0,0,0,1.09,0l1.59-.14Zm2.63-.19-.15.55,1,.27.69-2.69-1-.27-.14.55L10,53.26l-.41,1.59,5.33,4-.14.55,1,.26.65-2.51-1-.26-.18.66-1.21-.84.64-2.49,1.46-.09Zm1.13-2.88a.91.91,0,0,0,.69,0,1,1,0,0,0,.47-1.3,1,1,0,0,0-.53-.45.92.92,0,0,0-.75,0,.94.94,0,0,0-.44.56,1,1,0,0,0,0,.69.9.9,0,0,0,.57.5Zm2.16-6.39-.69,1.58-1.93-.84.69-1.6-1-.44-.7,1.6-1.74-.77.68-1.55,1,.37.47-1.09-2-.79-2,4.71,1,.42.3-.69,4.7,2-.25.58,1,.42,2-4.63-2.05-1-.48,1.1,1.09.56Zm1.42-2.1a.87.87,0,0,1-.48-.58.93.93,0,0,1,.11-.68A1,1,0,0,1,21,41a1,1,0,0,1,.74.11.88.88,0,0,1,.37,1.26.89.89,0,0,1-.57.47.85.85,0,0,1-.69-.09Zm1.71-7.87-1,1.42-.89-1.35a6.61,6.61,0,0,0-.67-.88h0a6.47,6.47,0,0,0,1,.38l1.54.44Zm2.52.77-.34.46.85.61,1.62-2.26-.85-.61-.33.45-6.39-1.66-1,1.34,3.56,5.63-.33.47.85.61,1.51-2.12L23.46,38l-.4.56-.83-1.22,1.5-2.09,1.39.44Zm2.13-2.2a.86.86,0,0,1-.35-.67.91.91,0,0,1,.25-.64,1,1,0,0,1,.61-.37.93.93,0,0,1,.71.26,1,1,0,0,1-.57,1.65.91.91,0,0,1-.65-.23Zm3.64-11.1.6-.48,2.12,2.66a2.57,2.57,0,0,1,.43.72,1.17,1.17,0,0,1,.09.62,1.65,1.65,0,0,1-.67,1,1.2,1.2,0,0,1-1.16.32,2.12,2.12,0,0,1-1-.79L29.17,23.7l.49-.38L29,22.5l-2.16,1.71.65.82.5-.39,2.27,2.86a2.91,2.91,0,0,0,1.61,1.15,2.82,2.82,0,0,0,2.23-.83,3.23,3.23,0,0,0,1.36-1.93,3.13,3.13,0,0,0-.89-2.27l-2-2.58.49-.4-.65-.81-2.13,1.69.65.82Zm8.51-4.6-.55-.83-1.12.66L40.32,22l.56-.33.53.9L39,24l-.53-.9.56-.33-2.6-4.41-1.1.64.45.89-1.05.62-1-1.79,5.61-3.3,1.09,1.73-1,.61ZM45.18,15l1.1-.48-.9-1.92-4.65,2,.42,1,.68-.3,2,4.7-.57.25.41,1L46.38,20l-.42-1-.71.31-.8-1.84,1.75-.76-.44-1L44,16.53l-.8-1.84L44.7,14l.48,1Zm4.13,2.48-.66.18.28,1,2.77-.77-.28-1-.66.18-.46-1.68.94-.26a2.18,2.18,0,0,0,1.6-2.83c-.38-1.36-1.4-1.81-3-1.36L47,11.73l.28,1,.66-.19,1.36,4.94ZM50,14.41l-.63-2.26.74-.2a1,1,0,0,1,1.38.81,1,1,0,0,1-.74,1.44l-.75.21Zm5.42,1.28-.62.11.2,1,2.69-.49-.19-1-.6.11-.35-1.87.34-.07a.64.64,0,0,1,.63.26l1.11,1.32a3,3,0,0,0,.8.76.78.78,0,0,0,.54.09l1.1-.2-.19-1-.25.05a.43.43,0,0,1-.29,0,1.6,1.6,0,0,1-.37-.3l-.82-1a2.17,2.17,0,0,0-.55-.51.75.75,0,0,0-.49-.08v0a1.78,1.78,0,0,0,1-.74,1.86,1.86,0,0,0,.29-1.4,2.31,2.31,0,0,0-.41-1,1.69,1.69,0,0,0-.86-.55,2.54,2.54,0,0,0-.59-.11,7,7,0,0,0-.9.12l-3,.56.19,1,.67-.12.93,5ZM56,10.38l.63-.11c.8-.15,1.26.12,1.37.81s-.16,1.11-.9,1.24l-.72.14L56,10.38Zm5.65,2.85,2.9-.28-.12-1.23-2.9.27.12,1.24Zm9.07,1.09a1.86,1.86,0,0,1-.42,0,2.85,2.85,0,0,1-.4,0,2.2,2.2,0,0,1-1.15-.32,1.93,1.93,0,0,1-.7-.66,2.63,2.63,0,0,1-.32-.86,3.72,3.72,0,0,1-.08-.86,3.13,3.13,0,0,1,.59-1.78A2,2,0,0,1,70,9.2a2.83,2.83,0,0,1,1,.21l0,1.15,1.26,0,.09-2A6.17,6.17,0,0,0,70,8.09a3.56,3.56,0,0,0-2.91,1,4,4,0,0,0-1.05,2.59c-.07,2.39,1.12,3.68,3.57,3.84a6.7,6.7,0,0,0,2.29-.26l.16-2.21L70.83,13l-.12,1.31ZM79,11.27l1.19.2.28-2L74.08,8.37l-.4,2,1.21.21.22-1,1.27.21-.85,5-.64-.11-.18,1,2.77.46.17-1-.64-.1.84-5,1.29.21Z"/><path class="cls-2" d="M40.29,140.11l-.43,0a19.36,19.36,0,0,1-3.8-.41,10.35,10.35,0,0,1-4.22-2.17l.33.59-7.41-4.49a16.53,16.53,0,0,1-8.21-13l0-.2,0-.21a14.19,14.19,0,0,1,1-3.71L17.2,116a14,14,0,0,1-1.79-4.84,17.71,17.71,0,0,1,1-9.63l0,0,.06-.11,0-.07.15-.25a10.57,10.57,0,0,1,1.29-1.86,11.34,11.34,0,0,1,2.79-2L21,97l.11-.06.06,0a10.32,10.32,0,0,1,1.78-.59,11.16,11.16,0,0,1,4.93-4.06c.55-5.95,2.85-12.1,7.13-19l-3,.93,4.1-5.58c.32-.43.8-1,1.36-1.66l.5-.6L34.1,68l3.62-6.13c4.56-7.73,8.52-14.45,20.09-18.46A16.29,16.29,0,0,1,58.16,41l-3.5.06,2.69-3.11a20.91,20.91,0,0,1,6.34-5.5,9,9,0,0,1,4.06-1,9.72,9.72,0,0,1,1.31.09,18.5,18.5,0,0,1,4.24,1.28l.51.2c.52.2,1.07.41,1.63.59L76,31.38l1.4.8c.55-.64,1.1-1.29,1.63-1.93l1.78-2.09.28-.32-5.27-.29,4.42-3.7c.59-.49,1.19-1,1.8-1.4a17.15,17.15,0,0,1-1.54-.9L75.16,18l6.33-.65c1.11-.11,2.25-.21,3.39-.29l6.39-1.34a24.44,24.44,0,0,1,4-.5c.36,0,.72,0,1.09,0a33,33,0,0,1,14,3.46,72.55,72.55,0,0,1,14.77,9.68c2,1.68,4.15,3.49,6.41,5.54a20.51,20.51,0,0,1,3.1,2.53l5.58,5.47-.42-.09c3.49,3.47,6.94,7,10.29,10.5l1.69,1.74c.91,1,1.83,1.9,2.75,2.84l4.65,4.77-6-.85A49.06,49.06,0,0,1,158,72.42a36,36,0,0,1-.07,18.6l-1.34,5.1-1.24-2a19,19,0,0,1-5.19,8.89l-5.06,5.28-.06-.47c-.79,1.38-1.6,2.79-2.45,4.17a41.88,41.88,0,0,1-6.64,8.71l-.05.06-.09.07a7.8,7.8,0,0,1-3.38,1.48l-2.08.44c-2,1.7-4.15,3.3-6.2,4.86l-.67.51a76.82,76.82,0,0,0-8.81,7.4l-3.15,3.23-.21-1.34h0l-1.86-2.6a8.88,8.88,0,0,1-.5-.75,14.33,14.33,0,0,0-3.44-.42,17,17,0,0,0-5.89,1.12c-.81.39-2.49.87-7.35.87h-.62c-1.7,0-3.36-.07-4.92-.18h0c-.66-.05-1.37-.1-2-.2a22.6,22.6,0,0,1-4.72,1.87l-.28.08h-.27c-1.2.06-2.43.09-3.64.09-2.14,0-4.3-.09-6.52-.26l1,1.11-4.85.2c-.77,0-1.61.06-2.58.06-.68,0-1.32,0-1.92,0l-.36,1.23-2.77-.37a36.62,36.62,0,0,1-6-1.26l-1.56,1.78L48.6,139c-1.13-.59-2.22-1.2-3.28-1.84l.89,1.67,2.75,1.7Z"/><path class="cls-2" d="M37.8,132.93a1.75,1.75,0,0,0-.25,1c.09,1.45,1.94,2.84,3.06,3.53l1.4.87-1.64-.07a20.16,20.16,0,0,1-3.88-.37c-2.87-.7-4.87-3-6.58-5.22l0,0a7.12,7.12,0,0,1-.76-3.76,5.72,5.72,0,0,1-2.29-3.06,9.94,9.94,0,0,1-.28-1.54c-1.29.71-1.36,1.8-1.35,4a9.11,9.11,0,0,0,1.11,3.13l.81,1.44L25.71,132a14.78,14.78,0,0,1-7.33-11.55v-.07a12.24,12.24,0,0,1,1.23-4L18.77,115a12.15,12.15,0,0,1-1.55-4.21,15.73,15.73,0,0,1,.84-8.56v0a11,11,0,0,1,1.21-1.79,10.79,10.79,0,0,1,2.59-1.79l0,0a8.06,8.06,0,0,1,2.16-.6,9.1,9.1,0,0,1,5.56-4.36C30,85,34.5,76.87,39.4,69.92l-2.58.81.77-1.06c1.43-2,7.87-8.51,2.13-6.09l-1.2.51L39.18,63C43.87,55,47.64,48.48,59.61,44.71a12.83,12.83,0,0,1,1.13-5.6l-2,0a19.08,19.08,0,0,1,5.76-5,7.22,7.22,0,0,1,4.31-.71,20.18,20.18,0,0,1,4.33,1.37,20.92,20.92,0,0,0,3.4,1.07l.36-.38.29-1.24c.73.41.68.19,1.22-.42,1.27-1.45,2.48-3,3.75-4.41a38.67,38.67,0,0,1,3-3.16L80.54,26l.84-.71a28.35,28.35,0,0,1,4.67-3.19A15.79,15.79,0,0,1,81.48,20l-1-.66,1.2-.13c3.5-.35,7-.55,10.52-.6l-2-.76,1.42-.3a22,22,0,0,1,3.7-.46,30.42,30.42,0,0,1,14.21,3.26,71.71,71.71,0,0,1,14.38,9.45c2.21,1.79,4.35,3.66,6.45,5.57a19.19,19.19,0,0,1,3,2.39l1,1-.44-.09c1.07,1,2.13,2.06,3.18,3.09,4.51,4.44,8.9,9,13.31,13.55q1.37,1.42,2.76,2.85l.88.9-4.43-.63a51.6,51.6,0,0,1,6.52,14.41,34.41,34.41,0,0,1-.07,17.68l-.26,1-1.32-2.13c-.76,4.39-2.3,9.32-5.68,12.29l-2.44,2.55-.11-.9a8.74,8.74,0,0,1-.07-1c0-.06,0-.16,0-.28-1.78,3-3.43,6-5.24,9a40.26,40.26,0,0,1-6.37,8.37h0a6.21,6.21,0,0,1-2.59,1.09l-.56.12.08-1.35c-2.91,2.63-6,5-9.16,7.35a78.38,78.38,0,0,0-9,7.61l-.6.62-.35-2.19-1.11,1.58-.36-.5a9.91,9.91,0,0,1-1-1.73l0,.39-.48-.12a17.48,17.48,0,0,0-10.55.8c-1.37.73-5.65.72-7.22.71s-3.2-.06-4.8-.17a17.35,17.35,0,0,1-2.44-.3,21.25,21.25,0,0,1-4.93,2l0,0h0a84.88,84.88,0,0,1-14.7-.65l1.58,1.74-.92,0c-1.8.07-5.77.22-8.08-.58a3.8,3.8,0,0,0,1,.65l2.53,1.18L58,137.41A31.45,31.45,0,0,1,49,135a11.7,11.7,0,0,0,1,1.68l1,1.43-1.55-.8a49.53,49.53,0,0,1-7.25-4.55H41.07a14.14,14.14,0,0,0,1,2.08l.62,1.15-1.18-.56a12.43,12.43,0,0,1-3.66-2.49ZM22.18,113a13.32,13.32,0,0,1,.93-2.84l.07-.14.37-.17a3.24,3.24,0,0,0-1.7.31,6.21,6.21,0,0,0-1.74,2.42,4.48,4.48,0,0,0-.54,2.2C19.69,117.94,20.72,114.35,22.18,113Z"/><path class="cls-8" d="M104.2,85.31l5.67-1.74,4.73-.66,6.92-5.36,3.94-4.12,3-7.79-.06-8.77-4-4a13.08,13.08,0,0,1,1,7.57c-.52-1.09-1-2.17-1.57-3.25a29.29,29.29,0,0,1-1.14,12.84,21,21,0,0,0-.92-6.59,34.38,34.38,0,0,1-2.55,8.78,12.84,12.84,0,0,0-.81-5.89c-1,3.36-2,6.39-3.09,7.83.34-3,.06-4.64-.84-5.06a9,9,0,0,1-3.12,5.09l-.46-3.35-3.47,4.27Z"/><path class="cls-8" d="M63.9,57.9l2.32,11.63L73,75.65l5.55,2.14.52-4.27.87-1a19,19,0,0,0-1-5.31,9.87,9.87,0,0,0-.64,4.16,11.6,11.6,0,0,1-3.81-5.09A9.39,9.39,0,0,0,75,71.51c-2.15-1.71-3.58-4.48-3.76-9.13-1,1-1.15,2.48-1,4.16-1.22-2.2-1.58-5.2-.88-9.09A7.23,7.23,0,0,0,67.09,61a19.65,19.65,0,0,1,.46-6.3A13.61,13.61,0,0,0,63.9,57.9Z"/><path class="cls-8" d="M103.56,82.42a19.9,19.9,0,0,1-4.22,2.48,4.25,4.25,0,0,0,.81-2.42c-3.16,2.44-5.77,3.16-7.9,3l2.2-2.89c-2.9,1.27-6.37,1.45-10.35.64a9.6,9.6,0,0,0,4.55-2.42,27.83,27.83,0,0,1-6.64.07,2.79,2.79,0,0,0-.17-1.85c-.82-.62-1.87-1.52-3.09-2.62l-3.92.81,3.82,4L78,83l9.54,3.69L87.84,88l9.13.47A12.8,12.8,0,0,0,103.56,82.42Z"/><path class="cls-8" d="M83.85,43.05a29.55,29.55,0,0,1,5.38,3.24c.13-.52,0-.83-1.56-3.24l1.62.87c-.91-2.18-5.09-3.06-7.35-2.89a8.25,8.25,0,0,1,4.68,2.77A6.23,6.23,0,0,0,83.85,43.05Z"/><path class="cls-8" d="M109.36,44a4.9,4.9,0,0,0-3.74,1.25,8,8,0,0,1,1.11-2.55l-3.18-.51c1.79-1.54,6.92-.51,10.17,1.37-1.82-.35-4.23-1.17-6-.28Z"/><path class="cls-8" d="M77.46,48.17l-1-.21a9.78,9.78,0,0,0-2.15,3.27,3.09,3.09,0,0,1,1.82-.81,8.78,8.78,0,0,0-1.35,3.27,3.83,3.83,0,0,1,1.9-1.2,5.19,5.19,0,0,0,1,3.28L78,53.86c1.75,2.08,3.61,2.42,5.55,1.68l9.66-3.47c.58.36-.33,1.3-.51,1.93,2.16-1.74,4.32-1.24,6.48-.11-.24-.61-1.34-1.76-.71-1.82l8.21,3.87c3.65.2,7.32.43,9.88-1.56a2.36,2.36,0,0,1-1.39-.92c-.31-1.53,1.81,0,2.72-.06l-1.56-2.26c.34-.92.93.47,2.1,1.09a11.86,11.86,0,0,0-2.16-3.51l-12.72-.18a6.46,6.46,0,0,0,2.43-1.85c-5.18,2.19-7,1.1-6.82-1.85-.31.15-.57.53-1,1.22a1.84,1.84,0,0,1-.62-1,11.54,11.54,0,0,1-.23,2.71,14.13,14.13,0,0,1-2-4.68,7.46,7.46,0,0,0-.41,4,14.19,14.19,0,0,0-2.2-1.65q.81,1.53-.81,4Z"/><path class="cls-8" d="M86.28,35.77c3-5.66,6.9-9.93,14.33-9.25a5.54,5.54,0,0,0-2.9-2.27,23,23,0,0,1,12.5,2.21,4.87,4.87,0,0,0-1.68-2.25c4,1.8,8.11,4.77,12.43,10.58l-5.26,2.89-1.33-1.16-13.7-.58L96.8,38.08Z"/><path class="cls-8" d="M139.69,47.39l-3-.44,6.27,5.41-3.58-1.51c6.5,9.17,11.47,17.63,10.29,23.24l-4.17-5.55c3.14,9.51,3.09,17.13.44,22-.54-3.62-1.79-6.75-3.33-8.52a42.28,42.28,0,0,1-5.43,20.81L135.88,99c-1,4.17-4.55,9.46-15.38,17.8a6.92,6.92,0,0,1,.11-4.28,12.93,12.93,0,0,0-5.43,5.67,8.78,8.78,0,0,1-1-5.2c-3.92,6.36-11.56,8.33-20.72,8.52a14,14,0,0,0,4.3,1.07c-5.13,2.6-15.94,2.07-24.51,1.27a14.89,14.89,0,0,0,3,2.2,65,65,0,0,1-20.14-3.8,3.42,3.42,0,0,0,1.24,2.12c-2.86,0-6.13-1.62-8.73-2.95a8.63,8.63,0,0,1,3.24-2.65,107.28,107.28,0,0,0-11.8,1l1.28-2.43a25.71,25.71,0,0,0-6.83,3.7l-.23-1.73c-1.37.69-2.32,2.54-2.31,6.93l3.35,1.16,1.85,4.27,5-.34,4.4,2.66,1.39-.93,6.59,2.43.81-1.39,7.05.93-.23-2.08,16.3,1.5,3.81-2.31L98.07,132l5.78-1.39,5.32.23,6.36-.57,17.57-13.87.46,2.08,8.33-11.22,4.86-8.55,1,2.08,4.52-7.4,1.5-7.28,1.73,1.15-.11-12.48L150.1,61.26,147.44,57l2.43-.23Z"/><path class="cls-8" d="M25.35,99.64A15.91,15.91,0,0,1,31.88,97a6.21,6.21,0,0,0-1.79,3.18c1.88-1.23,5.15-.22,8.5.93-5.3,1.41-8.18,3-7.86,4.91a3.05,3.05,0,0,0,1.73-.18,12.63,12.63,0,0,1-4.74,4.11l-1.56-.06-1.33-8.67Z"/><path class="cls-8" d="M107.55,98.37c-3.78,1.22-19.86-4.16-36.3,3.23l3-.23c-3.72,3.46-6.85-.15-14.86,4.92.06-1.26,1.07-2.92,2.74-4.87-5.6,3.06-10,7.72-11.53,14.41A18.35,18.35,0,0,1,57.89,112a3.24,3.24,0,0,0-1,3.41c3.3-4.15,16.83-9.34,28.59-6.33l-2.55,1.39c14.39,1.71,19.71-3.65,22.78-3.12a6,6,0,0,1-2.66,2.66c7.92-1.35,13.09-4.4,17-8.21l-.46,3.58c10.34-6.86,13.08-18.61,12.84-31.24a49.9,49.9,0,0,1-7.7,17.32l.41-4c-6.57,7.53-13.59,9.74-20.93,8.33Z"/><path class="cls-8" d="M52.75,99.87c-3.37-.36-5,1.17-6,3.59.23-3.36,2.19-6.61,8-9.66A18.3,18.3,0,0,0,50,92.13a6.47,6.47,0,0,1,3.12-.81c-2-1.66-4.62-1.93-7.81-1.16l2.37-2.43-1.33-1.32,3.07-.93,1.67-1,7.4,2.43,6.71,5.95L63.16,93l2.19,3.07-8.9,2.37-.17-1Z"/><path class="cls-8" d="M109.67,61.84c0,2.17-1.13,1.82-3.85.07l-2.52-4.15-1.78-2.34c.59,2.47-.57,2.17-3.19-.43.33,3.06-.3,2.68-1.59-.05-.5,2.56-.81,2.85-1.16.2-2.85,2.73-2.92,1.58-1.78.07a11.39,11.39,0,0,0-3.64,2.57l-2.78,2.84c-2.83,2.19-3.36,1.76-1.56-1.27-2.48.54-2,2.8-4.4,2.08l-1.15,5L81.19,72l2.49,2.32L97,71.55l7.52,1.79,2.77,1.79,3.38-4.95c-.19-2-.21-4-.4-5.92C110.23,63.55,109.74,62.55,109.67,61.84Z"/><path class="cls-8" d="M79.57,85.08a12.57,12.57,0,0,0,.81,1.85,13.44,13.44,0,0,1-8.09-6.71,12.25,12.25,0,0,0,.11,4c-2.73-3.11-4.62-7.69-6.12-13a7.81,7.81,0,0,1-2.23,2.46,16.09,16.09,0,0,1,.38-6.39c-.69-.22-1.63.49-2.78,2l1.13-5.14c-1.27.05-.94-1.27.49-3.53l-1.08.07L61.77,60l-5.43,2.43c-.29-1,1.68-3,4-5.7-7.55,3.21-11.59,6.32-13,8.93l3-.11a8,8,0,0,0-2.89,5,26,26,0,0,1,4.63-1.62,23.09,23.09,0,0,0-3.59,10.64c-.92-.62-1.16-1.94-1-3.33-3.18,4-5.87,8.13-7.2,12.46-1.8,1.85-2.22,3.27-2,4.49l5-.1-.11-2.43,7.4-6,7,1.74,7.86,6.47-3.24.35,2.31,2,11.22-1.27.69-1.39,16.88-2L94,88.08l-8.09-.35L88,85.54Z"/><path class="cls-9" d="M19.1,109.25c.93-3.69,2.67-6.25,5.44-6.55l1.76,6.41Z"/><path class="cls-9" d="M22.93,126.24c-1.74-4-.5-7.3,3.78-9.63l1.31,5Z"/><path class="cls-9" d="M36.19,135.18c-2.48-1.06-3.33-4.51-3.24-7.94l3.75,3.2Z"/><path class="cls-9" d="M35.59,88.74c1.21-3.58,9.1-4.9,12.1-3.06l-.54,2.76L44.8,89.61C40.77,87.44,37.47,87.36,35.59,88.74Z"/><path class="cls-8" d="M28.88,119.18a10.5,10.5,0,0,1,8-4.86c-3.31-1.89-6.63-2.2-9.94.06a3.66,3.66,0,0,1,1.33-2.25,9.62,9.62,0,0,0-5.55,3.18l1.68,4.62,1.85-1.33,1.66,2.49Z"/><path class="cls-8" d="M62.46,43.33c-.77-3.94,9.87-11.9,11.15.46l-7.45,5.33A7.2,7.2,0,0,1,62.46,43.33Z"/><path class="cls-8" d="M130.84,43.66c1.15-3.85-8.68-12.79-11.15-.62l3.79,3.15,2.34,3.8a16.35,16.35,0,0,0,2.71-2.14A7.76,7.76,0,0,0,130.84,43.66Z"/><path class="cls-10" d="M107,75.79c-3.34-4.56-10.59-4.9-20.79-2.06C97,78.5,104,80.55,107,75.79Z"/><path class="cls-2" d="M104.9,74.4c-.18,1.84-3.19,2.12-4.9-1-2,2-3.78,1.19-4.49-1A12.35,12.35,0,0,1,104.9,74.4Z"/><path class="cls-2" d="M91.47,72.93c.89.85,2.85,1.3,3.49-.43A6.64,6.64,0,0,0,91.47,72.93Z"/><path class="cls-10" d="M81.56,54c5.08,1.36,6.09-.52,11.54-1.95C87.91,54.91,82.4,58.67,81,64.53c-.79,4.48.62,7.09,2.66,9.17a32.21,32.21,0,0,1,12.68-2.4V69.42l-9.87-6.08a4.39,4.39,0,0,1,.38-2.69c.86-1.14,2-2.22,2.84-3.3a16.14,16.14,0,0,0,13.66.41,29.34,29.34,0,0,1,4.08,6A57.85,57.85,0,0,1,97.75,69l-.17,2.39a13.52,13.52,0,0,1,9.67,3.06,18.13,18.13,0,0,0,2.81-4.25c1.29-9.47-3.63-14.9-12-18.06l.84-.33a64.43,64.43,0,0,0,11.44,2.9c-.77.86-2.48.54-3.71.81,4,3.8,5.85,8.62,4.6,15.45a31,31,0,0,1-3.66,5.23A16.66,16.66,0,0,0,97.13,72.4,47.61,47.61,0,0,0,83.19,75a10.63,10.63,0,0,1-3.49-5.42c-.94-7,1.91-10.94,6-14C84,55.59,82.38,55.81,81.56,54Z"/><path class="cls-11" d="M87.35,62.65A9.67,9.67,0,0,1,90,59a20.74,20.74,0,0,0,13,.25c1,.71,1.91,2.12,2.61,4.36L97.7,68.12l-1.31,0Z"/><path class="cls-12" d="M101.47,63.39l2.38,0-6.08,3.4-1.68,0A26.22,26.22,0,0,1,89.32,63C98.28,66.45,98.12,63.49,101.47,63.39Z"/><path class="cls-13" d="M94.73,61.1a24.8,24.8,0,0,1-3.37-1.29c-1-.19-1.46.58-1.72,1.68C90.81,59.58,93.37,61.72,94.73,61.1Z"/><path class="cls-5" d="M76.28,76.84c-3.59-2.13-6.49-5.65-6.84-9.09-.59.18-.76,1.24-.65,2.89-1.17-1-1.33-3.38-.82-6.81a14.67,14.67,0,0,0-1.68,2.49,18.71,18.71,0,0,1-.52-9.26c-.53.2-.89.74-1.36,1-.06-2.41,2.09-5.05,4.13-8.22a4,4,0,0,1-2.19.49c2.06-1.6,5.74-6.16,10-6.7-1.06-1-1.92-.64-3.08-.22-3.57,1.28-6.59,4.1-10.82,8.77l2.38,0a10.14,10.14,0,0,0-2.36,8.75l1.22-1.66a37.09,37.09,0,0,0,2.1,12.05l.52-1.06a70.35,70.35,0,0,0,4.17,6.35l.19-2.18a15.28,15.28,0,0,0,2.92,3.71Z"/><path class="cls-14" d="M112,82.78c2.61-.84,8.81-4.84,10.79-8.8a5.67,5.67,0,0,1-.34,2c1-.6,4.06-5.91,3.29-12.83a16.75,16.75,0,0,1,1.78,2.71,22.31,22.31,0,0,0-2.16-12,16.52,16.52,0,0,1,2.23,1.21c.06-2.42-5-6.89-7.11-9.57a4.76,4.76,0,0,0,2.29.62,13.38,13.38,0,0,0-7.15-4.69c2.4-2.42,9.48,5.33,10.78,6.78l-1.52.11c2,2.49,3.85,3.91,5.83,10.62L129,57.79c.28,3,1.53,8.9-1,14l-.72-1.57c-.21,3.91-6.89,11.79-8.74,12l.28-1.44c-1,1.2-4.77,2.69-5.65,3.51a14.4,14.4,0,0,1-6.46,1.39c.25-.34.39-.65.31-.85a21.19,21.19,0,0,1-6.9,2.67,2.2,2.2,0,0,0,1.07.66c-6.71,3.45-14.78,4.44-23,4.83l1.83,1a83.11,83.11,0,0,0-25.43,6.36l.57-1.54a30.89,30.89,0,0,0-5.76,8.26c-.17-1.9.3-4,2.31-6.63a24.48,24.48,0,0,1,7.73-5.8l-1.92,3C63.8,94.76,73.76,94.4,73.55,93l-2.76-.4c6.62-.73,13.6-1.13,19.85-2.19a2.53,2.53,0,0,0,2-1.64L103.63,84a30.16,30.16,0,0,0,10-3.59Z"/><path class="cls-10" d="M98.07,47.93c5,4.06,12.65-7.17,18.39,1a8,8,0,0,0-2.48-.54c.66,6.15-5.76,6.46-12.15,3.54C98.83,51.43,98.13,49.83,98.07,47.93Z"/><path class="cls-2" d="M112.84,48.33a6.72,6.72,0,0,0-4.29.74l-.36,3.55C111.31,52.72,113.19,51.61,112.84,48.33Z"/><path class="cls-8" d="M111.25,48.26a3.08,3.08,0,0,1,.07.75A4,4,0,0,1,109,52.66c-2.51.19-3.76-.27-4.37-1.06a11.54,11.54,0,0,1,5.66-3.17A9.51,9.51,0,0,1,111.25,48.26Z"/><path class="cls-10" d="M107.78,47.79a2.08,2.08,0,1,1-2.08,2.08A2.08,2.08,0,0,1,107.78,47.79Z"/><path class="cls-2" d="M107.13,49.21a.61.61,0,0,1,0,1.22.61.61,0,0,1,0-1.22Z"/><path class="cls-2" d="M108.06,50.28a.43.43,0,0,1,.43.43.43.43,0,1,1-.85,0A.43.43,0,0,1,108.06,50.28Z"/><path class="cls-10" d="M95,47.87c-5.2,4.19-12.86-6.88-18.38,1a8.23,8.23,0,0,1,2.48-.54c-1.08,5.11,4.81,7,11.65,3.83C94.62,52,95,49.78,95,47.87Z"/><path class="cls-2" d="M80.41,48.26a8.11,8.11,0,0,1,4.15.75l.37,3.63C81.8,52.75,79.78,51.3,80.41,48.26Z"/><path class="cls-8" d="M82.73,48.39c-.8.8-.27,3.52,1.55,4.23,2.52.18,3.64-.29,4.25-1.08C86,49.41,84.71,48.72,82.73,48.39Z"/><path class="cls-10" d="M85.78,48a2,2,0,1,0,2,2A2,2,0,0,0,85.78,48Z"/><path class="cls-2" d="M85.07,49.31a.54.54,0,1,1-.54.54A.54.54,0,0,1,85.07,49.31Z"/><path class="cls-2" d="M85.89,50.26a.38.38,0,1,1-.37.38A.38.38,0,0,1,85.89,50.26Z"/><path class="cls-10" d="M97.84,50.51c-1.82-5.39.12-11.64.59-6.45a2.88,2.88,0,0,1,1.81-1.58c2.51-1.36,6.72-1.85,10.26-1.83-1.14-1.41-4.47-1.67-9.39-.3a11.25,11.25,0,0,0-.09-2.08c-1.34,1.86-2.42,2.67-2.78.56a6.53,6.53,0,0,0-1.9,2.84c-.26,1.29-.5,2.51-.69,3.53C95.57,47.49,96.24,49.66,97.84,50.51Z"/><path class="cls-10" d="M82.31,40.06c.85-1.8,2.81-2.19,6.36-.51a2.88,2.88,0,0,0-1-1.78,9.64,9.64,0,0,1,6.4,6.75,14.23,14.23,0,0,0-3-2.9A4.37,4.37,0,0,1,92,44.13C89.19,40.44,85.78,39.09,82.31,40.06Z"/><path class="cls-15" d="M92.5,89.2a22.25,22.25,0,0,1-2.29.12,19.37,19.37,0,0,1-6-.94l-.66-.21,1.27-1.27c-3.6,0-6.78-1.53-9.74-4.65l-.66-.69.95,0a12.21,12.21,0,0,0,1.53-.18c-3-2.09-5-4.21-5.86-6.47L70.61,74l.94.4c.47.2,1,.44,1.52.69a21,21,0,0,0,4.2,1.62c-.18-3.26,1.35-4.25,2.74-4.73l.54-.19,0,.57a4.14,4.14,0,0,1-.35,1.47,5.44,5.44,0,0,0,0,4.87l.41.78-.86-.16c-.74-.14-1.44-.29-2.11-.46A39.08,39.08,0,0,0,82,81.23l.55.27-.45.42A5.67,5.67,0,0,1,80,83a28.27,28.27,0,0,0,10.24,2.15l1.57.09-1.41.71a7.21,7.21,0,0,0-1.3.84c.63,0,1.2.06,1.73.06a14.93,14.93,0,0,0,5.88-1.1l1-.39L97,86.69a18.81,18.81,0,0,0,8.73-8,7.24,7.24,0,0,1-1.29.69l-.07,0h-.07c-1,.06-1.84.08-2.61.08a24.55,24.55,0,0,1-3.1-.18h0a81.51,81.51,0,0,1-8.1-2.71,22.58,22.58,0,0,0-5.35-1.65.65.65,0,0,0-.34.06l-.54.32-.1-.62a1.1,1.1,0,0,1,.22-.91,1.72,1.72,0,0,1,1.38-.46c2,0,6.44,1.44,13.5,4.41l.47,0c.65,0,1.33,0,2,0a18.14,18.14,0,0,0,2-.09,3.24,3.24,0,0,0,1.26-1,3.12,3.12,0,0,1,1.45-1l1.91-.87.63-.29,0,.7a11.48,11.48,0,0,1-2.65,7.47c-2.26,2.64-6.24,5-12.53,7.51l-.29.12Z"/><path class="cls-10" d="M84.53,74.58c1.31-.79,7.48,2.54,14.11,4.26a30.39,30.39,0,0,0,5.63.1,6.45,6.45,0,0,0,2.45-1.73C105.45,82,99.43,86.6,96.2,87.41l.61-1.31c-2.62,1-4.85,1.33-8.77,1a7.9,7.9,0,0,1,2.12-1.57c-4.16-.25-8.09-.9-11.38-2.67a8.21,8.21,0,0,0,3.06-1.25,40.21,40.21,0,0,1-6.52-3.93,35,35,0,0,0,4.56,1.17c-1.62-3.09.32-5.35.27-6.52-1.45.51-2.76,1.51-2.42,4.83-1.8-.16-4.44-1.61-6.35-2.42,1,2.52,3.35,4.79,6.63,6.87a25.84,25.84,0,0,1-2.67.35c2.86,3,6.22,4.82,10.5,4.47L84.29,88a19.68,19.68,0,0,0,8.39.78l.83,1c13.36-5.28,14.64-9.58,14.9-14.62l-2,.9c-.84.09-1.73,1.84-2.77,2a31.5,31.5,0,0,1-4.56,0C88.3,73.56,84.25,72.83,84.53,74.58Z"/><path class="cls-5" d="M64.6,41,62,42.12c-.3-1.44,1.31-3.45,4.06-5.3l-1.9.07c5.3-5.05,11,2.87,17.57,1.94A6.23,6.23,0,0,1,80.19,37c2.26,1.09,4,1.37,5.51.69L85,37.1c4.55-.33,8.28-.12,11.59,1.52l1.32,0c2.54-1.76,5-2.31,10.51-1.5l-.76.74a7.08,7.08,0,0,0,5.28-.6c0,.46-.55,1-1.4,1.71,7.44.41,11.78-6.68,17.9-2.26l-1.61.21c2.21,1.92,4,3.66,3.79,5.4l-2.27-1.22c2.43,3.65-1.68,9.47-4.3,7.41.37.89.62,2.12,1.29,2.15,1.91.07,5.1-3.37,5.28-6l1.56.94c.18-4-.57-6.38-1.63-7.87l1.47.31c-8.79-8.59-15.25-1.2-17.67-1.24l1.17-2.34c-1-.15-1.86.41-3.59,1.21-1.29.65-10.69-2.44-15.72,1.28C89.43,32.91,83.1,38.06,77,34.57l.86,1.87c-6.93-.59-10.13-7-18.14,2.26l1.76,0A12.56,12.56,0,0,0,60.09,46l1.69-.83A5.63,5.63,0,0,0,65,49.5l1-1a6.39,6.39,0,0,1-2.77-4C62.85,43.36,63.58,42.25,64.6,41Z"/><path class="cls-5" d="M59.28,73.86a13.18,13.18,0,0,1,4.91-11l0,1.79a21.88,21.88,0,0,0-2.56,4.69l1.86-.87c-.47,2.63-.89-.26-.87,13.35l-.46.81a39.19,39.19,0,0,1-1-10.64Z"/><path class="cls-5" d="M70.79,94.2a11.23,11.23,0,0,1-2.26-2.54l1.69.74a33.17,33.17,0,0,1-5.85-15.82A13.66,13.66,0,0,0,65.76,87l-11-10.55c1.47,3.49,7.68,8.82,11.52,13.22a9.63,9.63,0,0,0-2.45-.81c2.7,1.17,6,5.26,5,5.73Z"/><path class="cls-5" d="M65.52,95.24l-1.09-1.61,2.9,0c-6.19-6.56-12.8-10.77-20.07-9.16.39.4.9.68,1.16,1.21-2.1-.14-3.77.21-4.46,1.39a14.21,14.21,0,0,0,2.61.81,14.14,14.14,0,0,0-4.92,4.5l2.43-.34c-.85-.83,3-3.3,5.3-4A13.07,13.07,0,0,1,47.53,87a29.34,29.34,0,0,1,4.87-.07l-1.67-1.54C54.35,85,59.07,87.78,63.62,92l-2.83.12,3.52,4Z"/><path class="cls-5" d="M48.82,90.8A122.81,122.81,0,0,1,30,94c-3.23.52-6.59,4.06-6.76,8l1.44-.86c-1.11,2.38-1.29,4.37-.64,5.68a4.38,4.38,0,0,1,1.24-1,12.77,12.77,0,0,0,.23,4.28l1.37-.58c-.95-3.13-.88-5.76,1.41-7.51-1.05-.35-2.37,1.13-3,.64a12.3,12.3,0,0,1,2.95-2.89l-2.14-.1c-.32,0-.38-.24-.28-.51,1.11-1.81,3.22-3,5.73-3.83C38.16,93.62,44.38,95.3,48.82,90.8Z"/><path class="cls-5" d="M27.14,116.34c.61-.27.13,4.55,1.45,4.17l-1.22,1.73a21.88,21.88,0,0,1-.92-2.77,9.81,9.81,0,0,0-2.78,3,15.13,15.13,0,0,1-.23-4.45A3.46,3.46,0,0,0,22,119.24c.05-3.61.45-6.71,1.5-8.94a12.88,12.88,0,0,1,4.8-1,5.93,5.93,0,0,1,2.31,1.2c-3.47-.21-5.85,1-7,3.87-.45,1.75-.1,2.06.81,1.36.41-.32,1.26-1.74,1.56-1.53.7-.05-1.47,2.53-1.09,4.34C25.41,118.9,26.62,116.25,27.14,116.34Z"/><path class="cls-5" d="M37.59,130.59l-1,.44a27.23,27.23,0,0,0-3.13-2.86,7.41,7.41,0,0,0-.32,1.78,2.89,2.89,0,0,1-1.28-2.18c-.84.57-1.19.82-1.09,1.61-3.45-1.89-3.61-3.55-3.83-5.82.5-2.32.48-4.29,3.38-6.15-.08,1.92-1.63,3.89-1.54,5.88.07,1.3.36,2.34.84,2.59l.71.51c0-.53.3-2.87,1.11-3.1.28.26.81,3.38,1.54,3.21a3.08,3.08,0,0,1,.54-2.08c-.05.43.38,2.45,1.4,2.56a3.59,3.59,0,0,1,1.57-4,7.39,7.39,0,0,0-.61,1.94,7.93,7.93,0,0,0,.27,3.59,4,4,0,0,0,.71,1.37A3.71,3.71,0,0,0,37.59,130.59Z"/><path class="cls-5" d="M36.15,130.64l1.29-.17c1.1,0,.24-1.21-.07-2.56a10.5,10.5,0,0,0,3.79,2.81,20.28,20.28,0,0,1-1.45-4.11,14.81,14.81,0,0,0,6.19,6l-1.49-3.74a24.12,24.12,0,0,0,4.6,3.89l3.44,1.59c-.07-.88-1-1.8-1.4-3a28.44,28.44,0,0,0,9.47,3c-.31-1.48-2.21-2.33-3.21-3.65,7.07,2.39,16.88,3.34,22,2.25l-2.73-2.28a203,203,0,0,0,21.95.81A2.15,2.15,0,0,0,97,130.2c3.09-1.19,7-1,11.67-.1a6.76,6.76,0,0,1,1.74-4.64,11.08,11.08,0,0,0,1.26,4,20.87,20.87,0,0,1,2.65-4.35,12.54,12.54,0,0,0,.31,4.82c6.64-6.28,11.67-8,19.58-16.93l0,3.81c4-4.59,7.41-12.44,13.31-21.47l.61,3.9c3.19-3.5,4.39-9.91,4.58-17.79l1.93,3.36c.91-8.42-1.59-18.22-9.16-28.8l2.1,0C125.32,32.58,109.1,19,97.87,19.59l1.41,1-9.07.13a7.55,7.55,0,0,0,3.22,1.05,14.75,14.75,0,0,1-5.69,2c.16.54,1.15.84,2.7,1-4.79,3.35-8.3,8.78-13,12.87l-1.42-.73c3.71-3.57,6.75-8.21,10.16-11.06l-4.56-.25a27.56,27.56,0,0,1,5.62-3.67,15.4,15.4,0,0,1-5.56-2.27A124.7,124.7,0,0,1,94.44,19L91.74,18c19.52-4.09,40.2,19,61.15,40.52l-4.11-.59c6.32,9.85,10.15,20.23,6.9,32.54l-1.4-2.26c-1,6.46-2.93,10.73-5.74,13.19l-1.83,1.9c-.1-.8,0-2.39-.3-2.42-4.13,6.81-7.32,13.67-12.1,18.24a5.9,5.9,0,0,1-2.41,1l.11-1.85c-6.29,5.87-13.84,10.35-19,15.7l-.39-2.39-1.37,1.95a9.09,9.09,0,0,1-1.18-2.25.63.63,0,0,0-.58.62,17.92,17.92,0,0,0-10.83.82c-2,1.13-13.51.61-14.33.17a20.41,20.41,0,0,1-5,2.08,82.44,82.44,0,0,1-15.79-.8l1.75,1.94c-4.67.19-7.8-.13-9-1.09,0,1,.93,1.61,1.71,2a30,30,0,0,1-9.81-2.84,11,11,0,0,0,1.42,2.79c-2.54-1.32-5.13-2.23-7.55-3.69l-1.57-.92A10.34,10.34,0,0,0,41.64,135a11.75,11.75,0,0,1-3.76-2.65Z"/><path class="cls-5" d="M32.17,93.81c-1-8,6.48-20.13,13.53-28l-3.21,1,4.71-7.37A20.73,20.73,0,0,1,44,60a37.7,37.7,0,0,0,5-5.78h-1.5c.41-2,7.73-5.19,14.65-8l.43-1.9c-9.63,2.35-16.91,8-18.93,12.85L44.1,57a45,45,0,0,0-4.54,6.17A12.89,12.89,0,0,1,43,62.07a61.91,61.91,0,0,1-5.1,7.85l2.56-.8C33,79.56,30.28,87.28,30,94l1,1Z"/><path class="cls-5" d="M43.63,90.59c-.89-1.58-1.29-1.67-3.31-2.17-3.09-.42-3.7.94-5.29,2.43-1.35-3.21.75-6.19,3.6-8A15,15,0,0,1,46,81.53a8.77,8.77,0,0,1,4.77,2.72l-1,1.38C47,80.58,38,82.57,36,87.88c1.88.43,2.16-1.44,4.12-.76a12.32,12.32,0,0,1,4.71,2.08Z"/><path class="cls-5" d="M26.12,109.74c-4.26-.85-4.9-.33-6.4,2.6a5.12,5.12,0,0,0-.59,2.42c-2.32-3.78-2-9.25-.68-12.37,1.13-1.88,1.18-2,3.64-3.43a7.45,7.45,0,0,1,3-.62l-.33,1.84c-3.84,0-6.77,4.31-5.75,8.81,0,.06,0,.15.1.17.24.09.74-.71.83-.85.41-.59,1.73-1.14,5.84-.89Z"/><path class="cls-5" d="M28.34,123.2a4.45,4.45,0,0,0-2.91,1.45,4.72,4.72,0,0,0-.94,3.59,6.09,6.09,0,0,0,1.44,3.43A15.41,15.41,0,0,1,21.05,127a10.52,10.52,0,0,1-2.24-6.55,9.43,9.43,0,0,1,1.05-3.62,12.18,12.18,0,0,1,3.26-4.15l.09,3.23c-3.52,1.29-3.55,7.35-.5,9.89,1,1.23-.73-2.31,5.11-4.53Z"/><path class="cls-5" d="M38.1,131.91c-2.44,2.22.15,4.61,2.28,5.93a11.08,11.08,0,0,1-4.88-.71c-1-.4-4.28-1.87-5.51-5.11a7.23,7.23,0,0,1,.23-5.68l1.51.8a6.77,6.77,0,0,0-.46,1.87,4.75,4.75,0,0,0,2.3,4.84,7.51,7.51,0,0,0,2.54,1.3c-.41-.74-.67-3.23.77-4.51Z"/><path class="cls-5" d="M64.71,44c1,.57-.6-3.88,4-3.17.67.32,1.26.55,1.39.33s-.36-1.22.12-1c1.47.95,1.66,2.63,1.92,3.57L69.32,46c-2.15.21-2.22-2.57-1.82-3,.16-.25.42-.38.13-.8-1.16-.75-2.95,2.24.54,4.9l5-3.21c-.35-4.75-3.62-6.23-6-5.62a2,2,0,0,1,.86,1.4C64.16,38.51,63.31,44.23,64.71,44Z"/><path class="cls-5" d="M128.42,43.35c-.66-1.14.58-3.21-3.76-2.42-.73.16-1.19,1-1.69.66s.92-1.81.27-1.67c-1.46.62-2,2.91-1.94,3.21l1.79,2.47c2,.72,2.77-2,2.47-2.45-.09-.28-.31-.47.07-.81,1.31-.45,2.33,2.88-1.69,4.63l-4.11-4.32c.86-3.49,4.35-5.16,6.53-4a1.62,1.62,0,0,0-1,1.11,3.37,3.37,0,0,1,2.81.35C129.58,41.61,129.67,45.6,128.42,43.35Z"/></g></g></g></svg>